<?xml version="1.0" encoding="iso-8859-1"?>
<!-- Generator: Adobe Illustrator 19.0.0, SVG Export Plug-In . SVG Version: 6.00 Build 0)  -->
<svg version="1.1" id="Layer_1" xmlns="http://www.w3.org/2000/svg" xmlns:xlink="http://www.w3.org/1999/xlink" x="0px" y="0px"
	 viewBox="0 0 512 512" style="enable-background:new 0 0 512 512;" xml:space="preserve">
<circle style="fill:#35CCFF;" cx="256" cy="256" r="256"/>
<path style="fill:#00BAFF;" d="M512,256c0-28.589-4.691-56.08-13.336-81.755L391.78,67.362L119.401,378.256l133.708,133.708
	c0.964,0.01,1.926,0.036,2.891,0.036C397.384,512,512,397.384,512,256z"/>
<path style="fill:#175D76;" d="M227.556,510.419C236.896,511.452,246.384,512,256,512c9.616,0,19.104-0.548,28.444-1.581V369.778
	h-56.889V510.419z"/>
<path style="fill:#00263F;" d="M255.426,369.778v142.214c0.191,0,0.383,0.009,0.574,0.009c9.616,0,19.104-0.548,28.444-1.581
	V369.778H255.426z"/>
<path style="fill:#FFFFFF;" d="M373.586,386.77H138.414c-14.083,0-25.498-11.416-25.498-25.498V85.22
	c0-14.083,11.416-25.498,25.498-25.498h235.172c14.083,0,25.498,11.416,25.498,25.498v276.052
	C399.084,375.355,387.668,386.77,373.586,386.77z"/>
<path style="fill:#E0E0E0;" d="M373.586,59.721h-118.16V386.77h118.16c14.083,0,25.498-11.416,25.498-25.498V85.22
	C399.084,71.137,387.668,59.721,373.586,59.721z"/>
<path style="fill:#FFCF35;" d="M375.056,374.088H136.944c-6.128,0-11.099-4.968-11.099-11.099V83.503
	c0-6.13,4.968-11.099,11.099-11.099h238.114c6.128,0,11.099,4.968,11.099,11.099v279.488
	C386.155,369.119,381.187,374.088,375.056,374.088z"/>
<path style="fill:#FFB344;" d="M375.058,72.404H255.426v301.683h119.632c6.128,0,11.099-4.968,11.099-11.099V83.503
	C386.155,77.372,381.187,72.404,375.058,72.404z"/>
<path style="fill:#175D76;" d="M215.161,321.796l-16.087,0.281c-3.412,0.06-6.225-2.657-6.284-6.068l-0.281-16.087
	c-0.06-3.412,2.657-6.225,6.068-6.284l16.087-0.281c3.412-0.06,6.225,2.657,6.284,6.068l0.281,16.087
	C221.289,318.924,218.572,321.738,215.161,321.796z"/>
<path style="fill:#00263F;" d="M313.423,321.796l-16.087,0.281c-3.412,0.06-6.225-2.657-6.284-6.068l-0.281-16.087
	c-0.06-3.412,2.657-6.225,6.068-6.284l16.087-0.281c3.412-0.06,6.225,2.657,6.284,6.068l0.281,16.087
	C319.552,318.924,316.835,321.738,313.423,321.796z"/>
<path id="SVGCleanerId_0" style="fill:#FF6838;" d="M318.96,304.269H193.041c-7.596,0-13.753-6.158-13.753-13.753V164.595
	c0-7.596,6.158-13.753,13.753-13.753H318.96c7.596,0,13.753,6.158,13.753,13.753v125.919
	C332.714,298.112,326.556,304.269,318.96,304.269z"/>
<g>
	<path id="SVGCleanerId_0_1_" style="fill:#FF6838;" d="M318.96,304.269H193.041c-7.596,0-13.753-6.158-13.753-13.753V164.595
		c0-7.596,6.158-13.753,13.753-13.753H318.96c7.596,0,13.753,6.158,13.753,13.753v125.919
		C332.714,298.112,326.556,304.269,318.96,304.269z"/>
</g>
<path style="fill:#AE4E32;" d="M318.96,150.842h-63.535v153.428h63.535c7.596,0,13.753-6.158,13.753-13.753V164.595
	C332.714,157,326.556,150.842,318.96,150.842z"/>
<rect x="187.423" y="174.08" style="fill:#B9EAFF;" width="137.154" height="76.714"/>
<rect x="255.431" y="174.08" style="fill:#35CCFF;" width="69.146" height="76.714"/>
<circle style="fill:#FFD863;" cx="201.645" cy="274.963" r="14.222"/>
<circle style="fill:#FFCF35;" cx="310.355" cy="274.963" r="14.222"/>
<g>
</g>
<g>
</g>
<g>
</g>
<g>
</g>
<g>
</g>
<g>
</g>
<g>
</g>
<g>
</g>
<g>
</g>
<g>
</g>
<g>
</g>
<g>
</g>
<g>
</g>
<g>
</g>
<g>
</g>
</svg>
